<?xml version="1.0" standalone="no"?>
<!DOCTYPE svg PUBLIC "-//W3C//DTD SVG 1.1//EN" "http://www.w3.org/Graphics/SVG/1.1/DTD/svg11.dtd">
<svg width="259.252mm" height="282.434mm" viewBox="-1 -1 259.252 282.434" xmlns="http://www.w3.org/2000/svg" version="1.1">
<title>OpenSCAD Model</title>
<path d="
M 106.021,61 L 75.87,36.4 L 75.87,14.6 L 76.028,8 L 74.361,8 L 74.361,0 L 73.028,0 L 73.028,8 L 71.361,8 L 71.519,14.6 L 71.519,36.4 L 95.776,61 L 95.776,83.72 L 106.021,83.72 z
M 73.643,20.1 L 73.591,20.09 L 73.54,20.08 L 73.492,20.06 L 73.445,20.04 L 73.401,20.01 L 73.36,19.97 L 73.323,19.94 L 73.29,19.9 L 73.262,19.85 L 73.238,19.81 L 73.219,19.76 L 73.206,19.71 L 73.198,19.65 L 73.195,19.6 L 73.198,19.55 L 73.206,19.5 L 73.219,19.45 L 73.238,19.4 L 73.262,19.35 L 73.29,19.31 L 73.323,19.27 L 73.36,19.23 L 73.401,19.2 L 73.445,19.17 L 73.492,19.15 L 73.54,19.13 L 73.591,19.11 L 73.643,19.1 L 73.695,19.1 L 73.747,19.1 L 73.799,19.11 L 73.85,19.13 L 73.898,19.15 L 73.945,19.17 L 73.989,19.2 L 74.03,19.23 L 74.067,19.27 L 74.1,19.31 L 74.128,19.35 L 74.152,19.4 L 74.171,19.45 L 74.184,19.5 L 74.192,19.55 L 74.195,19.6 L 74.192,19.65 L 74.184,19.71 L 74.171,19.76 L 74.152,19.81 L 74.128,19.85 L 74.1,19.9 L 74.067,19.94 L 74.03,19.97 L 73.989,20.01 L 73.945,20.04 L 73.898,20.06 L 73.85,20.08 L 73.799,20.09 L 73.747,20.1 L 73.695,20.1 z
M 100.768,62.25 L 100.639,62.22 L 100.513,62.19 L 100.391,62.14 L 100.274,62.08 L 100.164,62.01 L 100.063,61.93 L 99.97,61.84 L 99.888,61.74 L 99.816,61.63 L 99.757,61.51 L 99.71,61.39 L 99.676,61.26 L 99.656,61.13 L 99.649,61 L 99.656,60.87 L 99.676,60.74 L 99.71,60.62 L 99.757,60.49 L 99.816,60.38 L 99.888,60.27 L 99.97,60.17 L 100.063,60.07 L 100.164,59.99 L 100.274,59.92 L 100.391,59.86 L 100.513,59.81 L 100.639,59.78 L 100.768,59.76 L 100.899,59.75 L 101.03,59.76 L 101.159,59.78 L 101.285,59.81 L 101.407,59.86 L 101.524,59.92 L 101.634,59.99 L 101.735,60.07 L 101.828,60.17 L 101.91,60.27 L 101.982,60.38 L 102.041,60.49 L 102.088,60.62 L 102.122,60.74 L 102.142,60.87 L 102.149,61 L 102.142,61.13 L 102.122,61.26 L 102.088,61.39 L 102.041,61.51 L 101.982,61.63 L 101.91,61.74 L 101.828,61.84 L 101.735,61.93 L 101.634,62.01 L 101.524,62.08 L 101.407,62.14 L 101.285,62.19 L 101.159,62.22 L 101.03,62.25 L 100.899,62.25 z
M 77.5944,146.72 L 53.4914,122.12 L 53.4914,100.32 L 53.3344,93.72 L 51.6674,93.72 L 51.6674,85.72 L 50.3344,85.72 L 50.3344,93.72 L 48.6674,93.72 L 49.1394,100.32 L 49.1394,122.12 L 67.3494,146.72 L 67.3494,169.43 L 77.5944,169.43 z
M 51.2634,105.81 L 51.2114,105.81 L 51.1604,105.79 L 51.1124,105.77 L 51.0654,105.75 L 51.0214,105.72 L 50.9804,105.69 L 50.9434,105.65 L 50.9104,105.61 L 50.8824,105.57 L 50.8584,105.52 L 50.8394,105.47 L 50.8264,105.42 L 50.8184,105.37 L 50.8154,105.32 L 50.8184,105.26 L 50.8264,105.21 L 50.8394,105.16 L 50.8584,105.11 L 50.8824,105.07 L 50.9104,105.02 L 50.9434,104.98 L 50.9804,104.94 L 51.0214,104.91 L 51.0654,104.88 L 51.1124,104.86 L 51.1604,104.84 L 51.2114,104.83 L 51.2634,104.82 L 51.3154,104.82 L 51.3674,104.82 L 51.4194,104.83 L 51.4704,104.84 L 51.5184,104.86 L 51.5654,104.88 L 51.6094,104.91 L 51.6504,104.94 L 51.6874,104.98 L 51.7204,105.02 L 51.7484,105.07 L 51.7724,105.11 L 51.7914,105.16 L 51.8044,105.21 L 51.8124,105.26 L 51.8154,105.32 L 51.8124,105.37 L 51.8044,105.42 L 51.7914,105.47 L 51.7724,105.52 L 51.7484,105.57 L 51.7204,105.61 L 51.6874,105.65 L 51.6504,105.69 L 51.6094,105.72 L 51.5654,105.75 L 51.5184,105.77 L 51.4704,105.79 L 51.4194,105.81 L 51.3674,105.81 L 51.3154,105.82 z
M 72.3404,147.96 L 72.2114,147.94 L 72.0854,147.91 L 71.9634,147.86 L 71.8464,147.8 L 71.7364,147.73 L 71.6354,147.65 L 71.5424,147.55 L 71.4604,147.45 L 71.3884,147.34 L 71.3294,147.22 L 71.2824,147.1 L 71.2484,146.98 L 71.2284,146.85 L 71.2214,146.72 L 71.2284,146.59 L 71.2484,146.46 L 71.2824,146.33 L 71.3294,146.21 L 71.3884,146.09 L 71.4604,145.98 L 71.5424,145.88 L 71.6354,145.79 L 71.7364,145.71 L 71.8464,145.63 L 71.9634,145.57 L 72.0854,145.53 L 72.2114,145.49 L 72.3404,145.47 L 72.4714,145.47 L 72.6024,145.47 L 72.7314,145.49 L 72.8574,145.53 L 72.9794,145.57 L 73.0964,145.63 L 73.2064,145.71 L 73.3074,145.79 L 73.4004,145.88 L 73.4824,145.98 L 73.5544,146.09 L 73.6134,146.21 L 73.6604,146.33 L 73.6944,146.46 L 73.7144,146.59 L 73.7214,146.72 L 73.7144,146.85 L 73.6944,146.98 L 73.6604,147.1 L 73.6134,147.22 L 73.5544,147.34 L 73.4824,147.45 L 73.4004,147.55 L 73.3074,147.65 L 73.2064,147.73 L 73.0964,147.8 L 72.9794,147.86 L 72.8574,147.91 L 72.7314,147.94 L 72.6024,147.96 L 72.4714,147.97 z
M 131.215,61 L 111.501,36.4 L 111.501,14.6 L 112.688,8 L 111.021,8 L 111.021,0 L 109.688,0 L 109.688,8 L 108.021,8 L 109.296,14.6 L 109.296,36.4 L 120.969,61 L 120.969,83.72 L 131.215,83.72 z
M 110.347,20.1 L 110.295,20.09 L 110.244,20.08 L 110.196,20.06 L 110.149,20.03 L 110.105,20.01 L 110.064,19.97 L 110.027,19.94 L 109.994,19.89 L 109.966,19.85 L 109.942,19.8 L 109.923,19.76 L 109.91,19.7 L 109.902,19.65 L 109.899,19.6 L 109.902,19.55 L 109.91,19.5 L 109.923,19.45 L 109.942,19.4 L 109.966,19.35 L 109.994,19.31 L 110.027,19.27 L 110.064,19.23 L 110.105,19.2 L 110.149,19.17 L 110.196,19.14 L 110.244,19.13 L 110.295,19.11 L 110.347,19.1 L 110.399,19.1 L 110.451,19.1 L 110.503,19.11 L 110.554,19.13 L 110.602,19.14 L 110.649,19.17 L 110.693,19.2 L 110.734,19.23 L 110.771,19.27 L 110.804,19.31 L 110.832,19.35 L 110.856,19.4 L 110.875,19.45 L 110.888,19.5 L 110.896,19.55 L 110.899,19.6 L 110.896,19.65 L 110.888,19.7 L 110.875,19.76 L 110.856,19.8 L 110.832,19.85 L 110.804,19.89 L 110.771,19.94 L 110.734,19.97 L 110.693,20.01 L 110.649,20.03 L 110.602,20.06 L 110.554,20.08 L 110.503,20.09 L 110.451,20.1 L 110.399,20.1 z
M 125.961,62.24 L 125.832,62.22 L 125.706,62.19 L 125.584,62.14 L 125.467,62.08 L 125.357,62.01 L 125.256,61.93 L 125.163,61.84 L 125.081,61.74 L 125.009,61.63 L 124.95,61.51 L 124.903,61.39 L 124.869,61.26 L 124.849,61.13 L 124.842,61 L 124.849,60.87 L 124.869,60.74 L 124.903,60.61 L 124.95,60.49 L 125.009,60.38 L 125.081,60.27 L 125.163,60.16 L 125.256,60.07 L 125.357,59.99 L 125.467,59.92 L 125.584,59.86 L 125.706,59.81 L 125.832,59.78 L 125.961,59.76 L 126.092,59.75 L 126.223,59.76 L 126.352,59.78 L 126.478,59.81 L 126.6,59.86 L 126.717,59.92 L 126.827,59.99 L 126.928,60.07 L 127.021,60.16 L 127.103,60.27 L 127.175,60.38 L 127.234,60.49 L 127.281,60.61 L 127.315,60.74 L 127.335,60.87 L 127.342,61 L 127.335,61.13 L 127.315,61.26 L 127.281,61.39 L 127.234,61.51 L 127.175,61.63 L 127.103,61.74 L 127.021,61.84 L 126.928,61.93 L 126.827,62.01 L 126.717,62.08 L 126.6,62.14 L 126.478,62.19 L 126.352,62.22 L 126.223,62.24 L 126.092,62.25 z
M 97.0544,146.72 L 85.5364,122.11 L 85.5364,100.32 L 84.2614,93.72 L 82.5944,93.72 L 82.5944,85.72 L 81.2614,85.72 L 81.2614,93.72 L 79.5944,93.72 L 83.3314,100.32 L 83.3314,122.11 L 92.6644,146.72 L 92.6644,160.06 L 86.8094,160.06 L 86.8094,169.43 L 97.0544,169.43 z
M 84.3824,105.81 L 84.3304,105.8 L 84.2794,105.79 L 84.2314,105.77 L 84.1844,105.75 L 84.1404,105.72 L 84.0994,105.69 L 84.0624,105.65 L 84.0294,105.61 L 84.0014,105.57 L 83.9774,105.52 L 83.9584,105.47 L 83.9454,105.42 L 83.9374,105.37 L 83.9344,105.32 L 83.9374,105.26 L 83.9454,105.21 L 83.9584,105.16 L 83.9774,105.11 L 84.0014,105.07 L 84.0294,105.02 L 84.0624,104.98 L 84.0994,104.94 L 84.1404,104.91 L 84.1844,104.88 L 84.2314,104.86 L 84.2794,104.84 L 84.3304,104.83 L 84.3824,104.82 L 84.4344,104.82 L 84.4864,104.82 L 84.5384,104.83 L 84.5894,104.84 L 84.6374,104.86 L 84.6844,104.88 L 84.7284,104.91 L 84.7694,104.94 L 84.8064,104.98 L 84.8394,105.02 L 84.8674,105.07 L 84.8914,105.11 L 84.9104,105.16 L 84.9234,105.21 L 84.9314,105.26 L 84.9344,105.32 L 84.9314,105.37 L 84.9234,105.42 L 84.9104,105.47 L 84.8914,105.52 L 84.8674,105.57 L 84.8394,105.61 L 84.8064,105.65 L 84.7694,105.69 L 84.7284,105.72 L 84.6844,105.75 L 84.6374,105.77 L 84.5894,105.79 L 84.5384,105.8 L 84.4864,105.81 L 84.4344,105.82 z
M 94.7284,147.96 L 94.5994,147.94 L 94.4734,147.9 L 94.3514,147.86 L 94.2344,147.8 L 94.1244,147.73 L 94.0234,147.64 L 93.9304,147.55 L 93.8484,147.45 L 93.7764,147.34 L 93.7174,147.22 L 93.6704,147.1 L 93.6364,146.97 L 93.6164,146.85 L 93.6094,146.72 L 93.6164,146.58 L 93.6364,146.46 L 93.6704,146.33 L 93.7174,146.21 L 93.7764,146.09 L 93.8484,145.98 L 93.9304,145.88 L 94.0234,145.79 L 94.1244,145.7 L 94.2344,145.63 L 94.3514,145.57 L 94.4734,145.53 L 94.5994,145.49 L 94.7284,145.47 L 94.8594,145.47 L 94.9904,145.47 L 95.1194,145.49 L 95.2454,145.53 L 95.3674,145.57 L 95.4844,145.63 L 95.5944,145.7 L 95.6954,145.79 L 95.7884,145.88 L 95.8704,145.98 L 95.9424,146.09 L 96.0014,146.21 L 96.0484,146.33 L 96.0824,146.46 L 96.1024,146.58 L 96.1094,146.72 L 96.1024,146.85 L 96.0824,146.97 L 96.0484,147.1 L 96.0014,147.22 L 95.9424,147.34 L 95.8704,147.45 L 95.7884,147.55 L 95.6954,147.64 L 95.5944,147.73 L 95.4844,147.8 L 95.3674,147.86 L 95.2454,147.9 L 95.1194,147.94 L 94.9904,147.96 L 94.8594,147.97 z
M 249.886,265.434 L 244.519,265.434 L 244.519,272.294 L 249.886,272.294 z
M 46.217,232.434 L 36.344,207.834 L 36.344,186.034 L 33.302,179.434 L 31.635,179.434 L 31.635,171.434 L 30.302,171.434 L 30.302,179.434 L 28.635,179.434 L 33.822,186.034 L 33.822,207.834 L 40.85,232.434 L 40.85,245.294 L 46.217,245.294 z
M 35.031,191.534 L 34.979,191.524 L 34.928,191.514 L 34.88,191.494 L 34.833,191.474 L 34.789,191.444 L 34.748,191.414 L 34.711,191.374 L 34.678,191.334 L 34.65,191.284 L 34.626,191.244 L 34.607,191.194 L 34.594,191.144 L 34.586,191.094 L 34.583,191.034 L 34.586,190.984 L 34.594,190.934 L 34.607,190.884 L 34.626,190.834 L 34.65,190.784 L 34.678,190.744 L 34.711,190.704 L 34.748,190.664 L 34.789,190.634 L 34.833,190.604 L 34.88,190.584 L 34.928,190.564 L 34.979,190.544 L 35.031,190.544 L 35.083,190.534 L 35.135,190.544 L 35.187,190.544 L 35.238,190.564 L 35.286,190.584 L 35.333,190.604 L 35.377,190.634 L 35.418,190.664 L 35.455,190.704 L 35.488,190.744 L 35.516,190.784 L 35.54,190.834 L 35.559,190.884 L 35.572,190.934 L 35.58,190.984 L 35.583,191.034 L 35.58,191.094 L 35.572,191.144 L 35.559,191.194 L 35.54,191.244 L 35.516,191.284 L 35.488,191.334 L 35.455,191.374 L 35.418,191.414 L 35.377,191.444 L 35.333,191.474 L 35.286,191.494 L 35.238,191.514 L 35.187,191.524 L 35.135,191.534 L 35.083,191.534 z
M 43.402,233.684 L 43.273,233.664 L 43.147,233.624 L 43.025,233.584 L 42.908,233.524 L 42.798,233.444 L 42.697,233.364 L 42.604,233.274 L 42.522,233.174 L 42.45,233.064 L 42.391,232.944 L 42.344,232.824 L 42.31,232.694 L 42.29,232.564 L 42.283,232.434 L 42.29,232.304 L 42.31,232.174 L 42.344,232.054 L 42.391,231.934 L 42.45,231.814 L 42.522,231.704 L 42.604,231.604 L 42.697,231.504 L 42.798,231.424 L 42.908,231.354 L 43.025,231.294 L 43.147,231.244 L 43.273,231.214 L 43.402,231.194 L 43.533,231.184 L 43.664,231.194 L 43.793,231.214 L 43.919,231.244 L 44.041,231.294 L 44.158,231.354 L 44.268,231.424 L 44.369,231.504 L 44.462,231.604 L 44.544,231.704 L 44.616,231.814 L 44.675,231.934 L 44.722,232.054 L 44.756,232.174 L 44.776,232.304 L 44.783,232.434 L 44.776,232.564 L 44.756,232.694 L 44.722,232.824 L 44.675,232.944 L 44.616,233.064 L 44.544,233.174 L 44.462,233.274 L 44.369,233.364 L 44.268,233.444 L 44.158,233.524 L 44.041,233.584 L 43.919,233.624 L 43.793,233.664 L 43.664,233.684 L 43.533,233.684 z
M 115.7814,146.72 L 108.9084,122.12 L 108.9084,100.32 L 103.7214,93.72 L 102.0544,93.72 L 102.0544,85.72 L 100.7214,85.72 L 100.7214,93.72 L 99.0544,93.72 L 106.3864,100.32 L 106.3864,122.12 L 105.5364,146.72 L 105.5364,169.43 L 115.7814,169.43 z
M 107.5954,105.82 L 107.5434,105.81 L 107.4924,105.79 L 107.4444,105.77 L 107.3974,105.75 L 107.3534,105.72 L 107.3124,105.69 L 107.2754,105.65 L 107.2424,105.61 L 107.2144,105.57 L 107.1904,105.52 L 107.1714,105.47 L 107.1584,105.42 L 107.1504,105.37 L 107.1474,105.32 L 107.1504,105.27 L 107.1584,105.21 L 107.1714,105.16 L 107.1904,105.11 L 107.2144,105.07 L 107.2424,105.02 L 107.2754,104.98 L 107.3124,104.95 L 107.3534,104.91 L 107.3974,104.88 L 107.4444,104.86 L 107.4924,104.84 L 107.5434,104.83 L 107.5954,104.82 L 107.6474,104.82 L 107.6994,104.82 L 107.7514,104.83 L 107.8024,104.84 L 107.8504,104.86 L 107.8974,104.88 L 107.9414,104.91 L 107.9824,104.95 L 108.0194,104.98 L 108.0524,105.02 L 108.0804,105.07 L 108.1044,105.11 L 108.1234,105.16 L 108.1364,105.21 L 108.1444,105.27 L 108.1474,105.32 L 108.1444,105.37 L 108.1364,105.42 L 108.1234,105.47 L 108.1044,105.52 L 108.0804,105.57 L 108.0524,105.61 L 108.0194,105.65 L 107.9824,105.69 L 107.9414,105.72 L 107.8974,105.75 L 107.8504,105.77 L 107.8024,105.79 L 107.7514,105.81 L 107.6994,105.82 L 107.6474,105.82 z
M 110.5274,147.96 L 110.3984,147.94 L 110.2724,147.91 L 110.1504,147.86 L 110.0334,147.8 L 109.9234,147.73 L 109.8224,147.65 L 109.7294,147.55 L 109.6474,147.45 L 109.5754,147.34 L 109.5164,147.23 L 109.4694,147.1 L 109.4354,146.98 L 109.4154,146.85 L 109.4084,146.72 L 109.4154,146.59 L 109.4354,146.46 L 109.4694,146.33 L 109.5164,146.21 L 109.5754,146.09 L 109.6474,145.98 L 109.7294,145.88 L 109.8224,145.79 L 109.9234,145.71 L 110.0334,145.64 L 110.1504,145.58 L 110.2724,145.53 L 110.3984,145.5 L 110.5274,145.47 L 110.6584,145.47 L 110.7894,145.47 L 110.9184,145.5 L 111.0444,145.53 L 111.1664,145.58 L 111.2834,145.64 L 111.3934,145.71 L 111.4944,145.79 L 111.5874,145.88 L 111.6694,145.98 L 111.7414,146.09 L 111.8004,146.21 L 111.8474,146.33 L 111.8814,146.46 L 111.9014,146.59 L 111.9084,146.72 L 111.9014,146.85 L 111.8814,146.98 L 111.8474,147.1 L 111.8004,147.23 L 111.7414,147.34 L 111.6694,147.45 L 111.5874,147.55 L 111.4944,147.65 L 111.3934,147.73 L 111.2834,147.8 L 111.1664,147.86 L 111.0444,147.91 L 110.9184,147.94 L 110.7894,147.96 L 110.6584,147.97 z
M 144.209,61 L 143.127,36.4 L 143.127,14.6 L 137.882,8 L 136.215,8 L 136.215,0 L 134.882,0 L 134.882,8 L 133.215,8 L 136.433,14.6 L 136.433,36.4 L 133.963,61 L 133.963,83.72 L 144.209,83.72 z
M 139.728,20.1 L 139.676,20.09 L 139.625,20.08 L 139.577,20.06 L 139.53,20.04 L 139.486,20.01 L 139.445,19.97 L 139.408,19.94 L 139.375,19.9 L 139.347,19.85 L 139.323,19.81 L 139.304,19.76 L 139.291,19.71 L 139.283,19.65 L 139.28,19.6 L 139.283,19.55 L 139.291,19.5 L 139.304,19.45 L 139.323,19.4 L 139.347,19.35 L 139.375,19.31 L 139.408,19.27 L 139.445,19.23 L 139.486,19.2 L 139.53,19.17 L 139.577,19.15 L 139.625,19.13 L 139.676,19.11 L 139.728,19.1 L 139.78,19.1 L 139.832,19.1 L 139.884,19.11 L 139.935,19.13 L 139.983,19.15 L 140.03,19.17 L 140.074,19.2 L 140.115,19.23 L 140.152,19.27 L 140.185,19.31 L 140.213,19.35 L 140.237,19.4 L 140.256,19.45 L 140.269,19.5 L 140.277,19.55 L 140.28,19.6 L 140.277,19.65 L 140.269,19.71 L 140.256,19.76 L 140.237,19.81 L 140.213,19.85 L 140.185,19.9 L 140.152,19.94 L 140.115,19.97 L 140.074,20.01 L 140.03,20.04 L 139.983,20.06 L 139.935,20.08 L 139.884,20.09 L 139.832,20.1 L 139.78,20.1 z
M 138.955,62.25 L 138.826,62.22 L 138.7,62.19 L 138.578,62.14 L 138.461,62.08 L 138.351,62.01 L 138.25,61.93 L 138.157,61.84 L 138.075,61.74 L 138.003,61.63 L 137.944,61.51 L 137.897,61.39 L 137.863,61.26 L 137.843,61.13 L 137.836,61 L 137.843,60.87 L 137.863,60.74 L 137.897,60.62 L 137.944,60.49 L 138.003,60.38 L 138.075,60.27 L 138.157,60.17 L 138.25,60.07 L 138.351,59.99 L 138.461,59.92 L 138.578,59.86 L 138.7,59.81 L 138.826,59.78 L 138.955,59.76 L 139.086,59.75 L 139.217,59.76 L 139.346,59.78 L 139.472,59.81 L 139.594,59.86 L 139.711,59.92 L 139.821,59.99 L 139.922,60.07 L 140.015,60.17 L 140.097,60.27 L 140.169,60.38 L 140.228,60.49 L 140.275,60.62 L 140.309,60.74 L 140.329,60.87 L 140.336,61 L 140.329,61.13 L 140.309,61.26 L 140.275,61.39 L 140.228,61.51 L 140.169,61.63 L 140.097,61.74 L 140.015,61.84 L 139.922,61.93 L 139.821,62.01 L 139.711,62.08 L 139.594,62.14 L 139.472,62.19 L 139.346,62.22 L 139.217,62.25 L 139.086,62.25 z
M 128.0264,146.72 L 128.1614,122.12 L 128.1614,100.32 L 127.4334,93.72 L 125.7664,93.72 L 125.7664,85.72 L 124.4334,85.72 L 124.4334,93.72 L 122.7664,93.72 L 124.6884,100.32 L 124.6884,122.12 L 117.7814,146.72 L 117.7814,169.43 L 128.0264,169.43 z
M 126.3734,105.81 L 126.3214,105.81 L 126.2704,105.79 L 126.2224,105.77 L 126.1754,105.75 L 126.1314,105.72 L 126.0904,105.69 L 126.0534,105.65 L 126.0204,105.61 L 125.9924,105.57 L 125.9684,105.52 L 125.9494,105.47 L 125.9364,105.42 L 125.9284,105.37 L 125.9254,105.32 L 125.9284,105.26 L 125.9364,105.21 L 125.9494,105.16 L 125.9684,105.11 L 125.9924,105.07 L 126.0204,105.02 L 126.0534,104.98 L 126.0904,104.94 L 126.1314,104.91 L 126.1754,104.88 L 126.2224,104.86 L 126.2704,104.84 L 126.3214,104.83 L 126.3734,104.82 L 126.4254,104.82 L 126.4774,104.82 L 126.5294,104.83 L 126.5804,104.84 L 126.6284,104.86 L 126.6754,104.88 L 126.7194,104.91 L 126.7604,104.94 L 126.7974,104.98 L 126.8304,105.02 L 126.8584,105.07 L 126.8824,105.11 L 126.9014,105.16 L 126.9144,105.21 L 126.9224,105.26 L 126.9254,105.32 L 126.9224,105.37 L 126.9144,105.42 L 126.9014,105.47 L 126.8824,105.52 L 126.8584,105.57 L 126.8304,105.61 L 126.7974,105.65 L 126.7604,105.69 L 126.7194,105.72 L 126.6754,105.75 L 126.6284,105.77 L 126.5804,105.79 L 126.5294,105.81 L 126.4774,105.81 L 126.4254,105.82 z
M 122.7734,147.96 L 122.6444,147.94 L 122.5184,147.91 L 122.3964,147.86 L 122.2794,147.8 L 122.1694,147.73 L 122.0684,147.65 L 121.9754,147.55 L 121.8934,147.45 L 121.8214,147.34 L 121.7624,147.22 L 121.7154,147.1 L 121.6814,146.98 L 121.6614,146.85 L 121.6544,146.72 L 121.6614,146.59 L 121.6814,146.46 L 121.7154,146.33 L 121.7624,146.21 L 121.8214,146.09 L 121.8934,145.98 L 121.9754,145.88 L 122.0684,145.79 L 122.1694,145.71 L 122.2794,145.63 L 122.3964,145.57 L 122.5184,145.53 L 122.6444,145.49 L 122.7734,145.47 L 122.9044,145.47 L 123.0354,145.47 L 123.1644,145.49 L 123.2904,145.53 L 123.4124,145.57 L 123.5294,145.63 L 123.6394,145.71 L 123.7404,145.79 L 123.8334,145.88 L 123.9154,145.98 L 123.9874,146.09 L 124.0464,146.21 L 124.0934,146.33 L 124.1274,146.46 L 124.1474,146.59 L 124.1544,146.72 L 124.1474,146.85 L 124.1274,146.98 L 124.0934,147.1 L 124.0464,147.22 L 123.9874,147.34 L 123.9154,147.45 L 123.8334,147.55 L 123.7404,147.65 L 123.6394,147.73 L 123.5294,147.8 L 123.4124,147.86 L 123.2904,147.91 L 123.1644,147.94 L 123.0354,147.96 L 122.9044,147.97 z
M 10.245,61 L 17.307,36.4 L 17.307,14.6 L 15.385,8 L 13.718,8 L 13.718,0 L 12.385,0 L 12.385,8 L 10.718,8 L 13.833,14.6 L 13.833,36.4 L 0,61 L 0,83.72 L 10.245,83.72 z
M 15.518,20.1 L 15.466,20.09 L 15.415,20.08 L 15.367,20.06 L 15.32,20.03 L 15.276,20.01 L 15.235,19.97 L 15.198,19.94 L 15.165,19.89 L 15.137,19.85 L 15.113,19.8 L 15.094,19.76 L 15.081,19.7 L 15.073,19.65 L 15.07,19.6 L 15.073,19.55 L 15.081,19.5 L 15.094,19.45 L 15.113,19.4 L 15.137,19.35 L 15.165,19.31 L 15.198,19.27 L 15.235,19.23 L 15.276,19.2 L 15.32,19.17 L 15.367,19.14 L 15.415,19.13 L 15.466,19.11 L 15.518,19.1 L 15.57,19.1 L 15.622,19.1 L 15.674,19.11 L 15.725,19.13 L 15.773,19.14 L 15.82,19.17 L 15.864,19.2 L 15.905,19.23 L 15.942,19.27 L 15.975,19.31 L 16.003,19.35 L 16.027,19.4 L 16.046,19.45 L 16.059,19.5 L 16.067,19.55 L 16.07,19.6 L 16.067,19.65 L 16.059,19.7 L 16.046,19.76 L 16.027,19.8 L 16.003,19.85 L 15.975,19.89 L 15.942,19.94 L 15.905,19.97 L 15.864,20.01 L 15.82,20.03 L 15.773,20.06 L 15.725,20.08 L 15.674,20.09 L 15.622,20.1 L 15.57,20.1 z
M 4.991,62.24 L 4.862,62.22 L 4.736,62.19 L 4.614,62.14 L 4.497,62.08 L 4.387,62.01 L 4.286,61.93 L 4.193,61.84 L 4.111,61.74 L 4.039,61.63 L 3.98,61.51 L 3.933,61.39 L 3.899,61.26 L 3.879,61.13 L 3.872,61 L 3.879,60.87 L 3.899,60.74 L 3.933,60.61 L 3.98,60.49 L 4.039,60.38 L 4.111,60.27 L 4.193,60.16 L 4.286,60.07 L 4.387,59.99 L 4.497,59.92 L 4.614,59.86 L 4.736,59.81 L 4.862,59.78 L 4.991,59.76 L 5.122,59.75 L 5.253,59.76 L 5.382,59.78 L 5.508,59.81 L 5.63,59.86 L 5.747,59.92 L 5.857,59.99 L 5.958,60.07 L 6.051,60.16 L 6.133,60.27 L 6.205,60.38 L 6.264,60.49 L 6.311,60.61 L 6.345,60.74 L 6.365,60.87 L 6.372,61 L 6.365,61.13 L 6.345,61.26 L 6.311,61.39 L 6.264,61.51 L 6.205,61.63 L 6.133,61.74 L 6.051,61.84 L 5.958,61.93 L 5.857,62.01 L 5.747,62.08 L 5.63,62.14 L 5.508,62.19 L 5.382,62.22 L 5.253,62.24 L 5.122,62.25 z
M 140.4074,146.72 L 151.6134,122.12 L 151.6134,100.32 L 150.3544,93.72 L 147.7614,93.72 L 147.7614,85.72 L 146.4284,85.72 L 146.4284,93.72 L 143.8354,93.72 L 142.5764,100.32 L 142.5764,122.12 L 130.1614,146.72 L 130.1614,169.43 L 140.4074,169.43 z
M 147.0434,105.81 L 146.9914,105.8 L 146.9404,105.79 L 146.8924,105.77 L 146.8454,105.75 L 146.8014,105.72 L 146.7604,105.69 L 146.7234,105.65 L 146.6904,105.61 L 146.6624,105.57 L 146.6384,105.52 L 146.6194,105.47 L 146.6064,105.42 L 146.5984,105.37 L 146.5954,105.32 L 146.5984,105.26 L 146.6064,105.21 L 146.6194,105.16 L 146.6384,105.11 L 146.6624,105.07 L 146.6904,105.02 L 146.7234,104.98 L 146.7604,104.94 L 146.8014,104.91 L 146.8454,104.88 L 146.8924,104.86 L 146.9404,104.84 L 146.9914,104.83 L 147.0434,104.82 L 147.0954,104.82 L 147.1474,104.82 L 147.1994,104.83 L 147.2504,104.84 L 147.2984,104.86 L 147.3454,104.88 L 147.3894,104.91 L 147.4304,104.94 L 147.4674,104.98 L 147.5004,105.02 L 147.5284,105.07 L 147.5524,105.11 L 147.5714,105.16 L 147.5844,105.21 L 147.5924,105.26 L 147.5954,105.32 L 147.5924,105.37 L 147.5844,105.42 L 147.5714,105.47 L 147.5524,105.52 L 147.5284,105.57 L 147.5004,105.61 L 147.4674,105.65 L 147.4304,105.69 L 147.3894,105.72 L 147.3454,105.75 L 147.2984,105.77 L 147.2504,105.79 L 147.1994,105.8 L 147.1474,105.81 L 147.0954,105.82 z
M 135.1534,147.96 L 135.0244,147.94 L 134.8984,147.9 L 134.7764,147.86 L 134.6594,147.8 L 134.5494,147.73 L 134.4484,147.64 L 134.3554,147.55 L 134.2734,147.45 L 134.2014,147.34 L 134.1424,147.22 L 134.0954,147.1 L 134.0614,146.97 L 134.0414,146.85 L 134.0344,146.72 L 134.0414,146.58 L 134.0614,146.46 L 134.0954,146.33 L 134.1424,146.21 L 134.2014,146.09 L 134.2734,145.98 L 134.3554,145.88 L 134.4484,145.79 L 134.5494,145.7 L 134.6594,145.63 L 134.7764,145.57 L 134.8984,145.53 L 135.0244,145.49 L 135.1534,145.47 L 135.2844,145.47 L 135.4154,145.47 L 135.5444,145.49 L 135.6704,145.53 L 135.7924,145.57 L 135.9094,145.63 L 136.0194,145.7 L 136.1204,145.79 L 136.2134,145.88 L 136.2954,145.98 L 136.3674,146.09 L 136.4264,146.21 L 136.4734,146.33 L 136.5074,146.46 L 136.5274,146.58 L 136.5344,146.72 L 136.5274,146.85 L 136.5074,146.97 L 136.4734,147.1 L 136.4264,147.22 L 136.3674,147.34 L 136.2954,147.45 L 136.2134,147.55 L 136.1204,147.64 L 136.0194,147.73 L 135.9094,147.8 L 135.7924,147.86 L 135.6704,147.9 L 135.5444,147.94 L 135.4154,147.96 L 135.2844,147.97 z
M 207.8304,146.72 L 217.0814,122.12 L 217.0814,93.72 L 215.3774,93.72 L 215.3774,85.72 L 214.0434,85.72 L 214.0434,93.72 L 212.3394,93.72 L 212.3394,122.12 L 197.5854,146.72 L 197.5854,169.43 L 207.8304,169.43 z
M 214.6584,105.82 L 214.6064,105.81 L 214.5554,105.79 L 214.5074,105.78 L 214.4604,105.75 L 214.4164,105.72 L 214.3754,105.69 L 214.3384,105.65 L 214.3054,105.61 L 214.2774,105.57 L 214.2534,105.52 L 214.2344,105.47 L 214.2214,105.42 L 214.2134,105.37 L 214.2104,105.32 L 214.2134,105.27 L 214.2214,105.22 L 214.2344,105.16 L 214.2534,105.12 L 214.2774,105.07 L 214.3054,105.03 L 214.3384,104.98 L 214.3754,104.95 L 214.4164,104.91 L 214.4604,104.89 L 214.5074,104.86 L 214.5554,104.84 L 214.6064,104.83 L 214.6584,104.82 L 214.7104,104.82 L 214.7624,104.82 L 214.8144,104.83 L 214.8654,104.84 L 214.9134,104.86 L 214.9604,104.89 L 215.0044,104.91 L 215.0454,104.95 L 215.0824,104.98 L 215.1154,105.03 L 215.1434,105.07 L 215.1674,105.12 L 215.1864,105.16 L 215.1994,105.22 L 215.2074,105.27 L 215.2104,105.32 L 215.2074,105.37 L 215.1994,105.42 L 215.1864,105.47 L 215.1674,105.52 L 215.1434,105.57 L 215.1154,105.61 L 215.0824,105.65 L 215.0454,105.69 L 215.0044,105.72 L 214.9604,105.75 L 214.9134,105.78 L 214.8654,105.79 L 214.8144,105.81 L 214.7624,105.82 L 214.7104,105.82 z
M 202.5774,147.96 L 202.4484,147.94 L 202.3224,147.91 L 202.2004,147.86 L 202.0834,147.8 L 201.9734,147.73 L 201.8724,147.65 L 201.7794,147.56 L 201.6974,147.45 L 201.6254,147.34 L 201.5664,147.23 L 201.5194,147.11 L 201.4854,146.98 L 201.4654,146.85 L 201.4584,146.72 L 201.4654,146.59 L 201.4854,146.46 L 201.5194,146.33 L 201.5664,146.21 L 201.6254,146.09 L 201.6974,145.98 L 201.7794,145.88 L 201.8724,145.79 L 201.9734,145.71 L 202.0834,145.64 L 202.2004,145.58 L 202.3224,145.53 L 202.4484,145.5 L 202.5774,145.48 L 202.7084,145.47 L 202.8394,145.48 L 202.9684,145.5 L 203.0944,145.53 L 203.2164,145.58 L 203.3334,145.64 L 203.4434,145.71 L 203.5444,145.79 L 203.6374,145.88 L 203.7194,145.98 L 203.7914,146.09 L 203.8504,146.21 L 203.8974,146.33 L 203.9314,146.46 L 203.9514,146.59 L 203.9584,146.72 L 203.9514,146.85 L 203.9314,146.98 L 203.8974,147.11 L 203.8504,147.23 L 203.7914,147.34 L 203.7194,147.45 L 203.6374,147.56 L 203.5444,147.65 L 203.4434,147.73 L 203.3334,147.8 L 203.2164,147.86 L 203.0944,147.91 L 202.9684,147.94 L 202.8394,147.96 L 202.7084,147.97 z
M 29.552,61 L 44.461,36.4 L 44.461,8 L 42.756,8 L 42.756,0 L 41.423,0 L 41.423,8 L 39.718,8 L 39.718,36.4 L 25.161,61 L 25.161,74.35 L 19.307,74.35 L 19.307,83.72 L 29.552,83.72 z
M 42.037,20.1 L 41.985,20.09 L 41.934,20.08 L 41.886,20.06 L 41.839,20.04 L 41.795,20.01 L 41.754,19.98 L 41.717,19.94 L 41.684,19.9 L 41.656,19.85 L 41.632,19.81 L 41.613,19.76 L 41.6,19.71 L 41.592,19.66 L 41.589,19.6 L 41.592,19.55 L 41.6,19.5 L 41.613,19.45 L 41.632,19.4 L 41.656,19.35 L 41.684,19.31 L 41.717,19.27 L 41.754,19.23 L 41.795,19.2 L 41.839,19.17 L 41.886,19.15 L 41.934,19.13 L 41.985,19.11 L 42.037,19.11 L 42.089,19.1 L 42.141,19.11 L 42.193,19.11 L 42.244,19.13 L 42.292,19.15 L 42.339,19.17 L 42.383,19.2 L 42.424,19.23 L 42.461,19.27 L 42.494,19.31 L 42.522,19.35 L 42.546,19.4 L 42.565,19.45 L 42.578,19.5 L 42.586,19.55 L 42.589,19.6 L 42.586,19.66 L 42.578,19.71 L 42.565,19.76 L 42.546,19.81 L 42.522,19.85 L 42.494,19.9 L 42.461,19.94 L 42.424,19.98 L 42.383,20.01 L 42.339,20.04 L 42.292,20.06 L 42.244,20.08 L 42.193,20.09 L 42.141,20.1 L 42.089,20.1 z
M 27.226,62.25 L 27.097,62.23 L 26.971,62.19 L 26.849,62.15 L 26.732,62.09 L 26.622,62.01 L 26.521,61.93 L 26.428,61.84 L 26.346,61.74 L 26.274,61.63 L 26.215,61.51 L 26.168,61.39 L 26.134,61.26 L 26.114,61.13 L 26.107,61 L 26.114,60.87 L 26.134,60.74 L 26.168,60.62 L 26.215,60.5 L 26.274,60.38 L 26.346,60.27 L 26.428,60.17 L 26.521,60.07 L 26.622,59.99 L 26.732,59.92 L 26.849,59.86 L 26.971,59.81 L 27.097,59.78 L 27.226,59.76 L 27.357,59.75 L 27.488,59.76 L 27.617,59.78 L 27.743,59.81 L 27.865,59.86 L 27.982,59.92 L 28.092,59.99 L 28.193,60.07 L 28.286,60.17 L 28.368,60.27 L 28.44,60.38 L 28.499,60.5 L 28.546,60.62 L 28.58,60.74 L 28.6,60.87 L 28.607,61 L 28.6,61.13 L 28.58,61.26 L 28.546,61.39 L 28.499,61.51 L 28.44,61.63 L 28.368,61.74 L 28.286,61.84 L 28.193,61.93 L 28.092,62.01 L 27.982,62.09 L 27.865,62.15 L 27.743,62.19 L 27.617,62.23 L 27.488,62.25 L 27.357,62.25 z
M 257.252,265.434 L 251.886,265.434 L 251.886,272.294 L 257.252,272.294 z
M 53.583,232.434 L 66.904,207.834 L 66.904,179.434 L 64.882,179.434 L 64.882,171.434 L 63.549,171.434 L 63.549,179.434 L 61.527,179.434 L 61.527,207.834 L 48.217,232.434 L 48.217,245.294 L 53.583,245.294 z
M 64.164,191.534 L 64.112,191.524 L 64.061,191.514 L 64.013,191.494 L 63.966,191.474 L 63.922,191.444 L 63.881,191.404 L 63.844,191.374 L 63.811,191.334 L 63.783,191.284 L 63.759,191.244 L 63.74,191.194 L 63.727,191.144 L 63.719,191.084 L 63.716,191.034 L 63.719,190.984 L 63.727,190.934 L 63.74,190.884 L 63.759,190.834 L 63.783,190.784 L 63.811,190.744 L 63.844,190.704 L 63.881,190.664 L 63.922,190.634 L 63.966,190.604 L 64.013,190.584 L 64.061,190.564 L 64.112,190.544 L 64.164,190.544 L 64.216,190.534 L 64.268,190.544 L 64.32,190.544 L 64.371,190.564 L 64.419,190.584 L 64.466,190.604 L 64.51,190.634 L 64.551,190.664 L 64.588,190.704 L 64.621,190.744 L 64.649,190.784 L 64.673,190.834 L 64.692,190.884 L 64.705,190.934 L 64.713,190.984 L 64.716,191.034 L 64.713,191.084 L 64.705,191.144 L 64.692,191.194 L 64.673,191.244 L 64.649,191.284 L 64.621,191.334 L 64.588,191.374 L 64.551,191.404 L 64.51,191.444 L 64.466,191.474 L 64.419,191.494 L 64.371,191.514 L 64.32,191.524 L 64.268,191.534 L 64.216,191.534 z
M 50.769,233.684 L 50.64,233.654 L 50.514,233.624 L 50.392,233.574 L 50.275,233.514 L 50.165,233.444 L 50.064,233.364 L 49.971,233.274 L 49.889,233.174 L 49.817,233.064 L 49.758,232.944 L 49.711,232.824 L 49.677,232.694 L 49.657,232.564 L 49.65,232.434 L 49.657,232.304 L 49.677,232.174 L 49.711,232.054 L 49.758,231.924 L 49.817,231.814 L 49.889,231.704 L 49.971,231.604 L 50.064,231.504 L 50.165,231.424 L 50.275,231.354 L 50.392,231.294 L 50.514,231.244 L 50.64,231.214 L 50.769,231.194 L 50.9,231.184 L 51.031,231.194 L 51.16,231.214 L 51.286,231.244 L 51.408,231.294 L 51.525,231.354 L 51.635,231.424 L 51.736,231.504 L 51.829,231.604 L 51.911,231.704 L 51.983,231.814 L 52.042,231.924 L 52.089,232.054 L 52.123,232.174 L 52.143,232.304 L 52.15,232.434 L 52.143,232.564 L 52.123,232.694 L 52.089,232.824 L 52.042,232.944 L 51.983,233.064 L 51.911,233.174 L 51.829,233.274 L 51.736,233.364 L 51.635,233.444 L 51.525,233.514 L 51.408,233.574 L 51.286,233.624 L 51.16,233.654 L 51.031,233.684 L 50.9,233.684 z
M 163.8594,146.72 L 177.3244,122.12 L 177.3244,93.72 L 175.3024,93.72 L 175.3024,85.72 L 173.9694,85.72 L 173.9694,93.72 L 171.9474,93.72 L 171.9474,122.12 L 153.6134,146.72 L 153.6134,169.43 L 163.8594,169.43 z
M 174.5844,105.81 L 174.5324,105.81 L 174.4814,105.79 L 174.4334,105.77 L 174.3864,105.75 L 174.3424,105.72 L 174.3014,105.69 L 174.2644,105.65 L 174.2314,105.61 L 174.2034,105.57 L 174.1794,105.52 L 174.1604,105.47 L 174.1474,105.42 L 174.1394,105.37 L 174.1364,105.32 L 174.1394,105.26 L 174.1474,105.21 L 174.1604,105.16 L 174.1794,105.11 L 174.2034,105.07 L 174.2314,105.02 L 174.2644,104.98 L 174.3014,104.95 L 174.3424,104.91 L 174.3864,104.88 L 174.4334,104.86 L 174.4814,104.84 L 174.5324,104.83 L 174.5844,104.82 L 174.6364,104.82 L 174.6884,104.82 L 174.7404,104.83 L 174.7914,104.84 L 174.8394,104.86 L 174.8864,104.88 L 174.9304,104.91 L 174.9714,104.95 L 175.0084,104.98 L 175.0414,105.02 L 175.0694,105.07 L 175.0934,105.11 L 175.1124,105.16 L 175.1254,105.21 L 175.1334,105.26 L 175.1364,105.32 L 175.1334,105.37 L 175.1254,105.42 L 175.1124,105.47 L 175.0934,105.52 L 175.0694,105.57 L 175.0414,105.61 L 175.0084,105.65 L 174.9714,105.69 L 174.9304,105.72 L 174.8864,105.75 L 174.8394,105.77 L 174.7914,105.79 L 174.7404,105.81 L 174.6884,105.81 L 174.6364,105.82 z
M 158.6054,147.96 L 158.4764,147.94 L 158.3504,147.91 L 158.2284,147.86 L 158.1114,147.8 L 158.0014,147.73 L 157.9004,147.65 L 157.8074,147.55 L 157.7254,147.45 L 157.6534,147.34 L 157.5944,147.23 L 157.5474,147.1 L 157.5134,146.98 L 157.4934,146.85 L 157.4864,146.72 L 157.4934,146.59 L 157.5134,146.46 L 157.5474,146.33 L 157.5944,146.21 L 157.6534,146.09 L 157.7254,145.98 L 157.8074,145.88 L 157.9004,145.79 L 158.0014,145.71 L 158.1114,145.63 L 158.2284,145.57 L 158.3504,145.53 L 158.4764,145.49 L 158.6054,145.47 L 158.7364,145.47 L 158.8674,145.47 L 158.9964,145.49 L 159.1224,145.53 L 159.2444,145.57 L 159.3614,145.63 L 159.4714,145.71 L 159.5724,145.79 L 159.6654,145.88 L 159.7474,145.98 L 159.8194,146.09 L 159.8784,146.21 L 159.9254,146.33 L 159.9594,146.46 L 159.9794,146.59 L 159.9864,146.72 L 159.9794,146.85 L 159.9594,146.98 L 159.9254,147.1 L 159.8784,147.23 L 159.8194,147.34 L 159.7474,147.45 L 159.6654,147.55 L 159.5724,147.65 L 159.4714,147.73 L 159.3614,147.8 L 159.2444,147.86 L 159.1224,147.91 L 158.9964,147.94 L 158.8674,147.96 L 158.7364,147.97 z
M 56.706,61 L 69.361,36.4 L 69.361,8 L 64.828,8 L 64.828,0 L 63.494,0 L 63.494,8 L 58.961,8 L 58.961,36.4 L 46.461,61 L 46.461,83.72 L 56.706,83.72 z
M 64.109,20.1 L 64.057,20.09 L 64.006,20.08 L 63.958,20.06 L 63.911,20.03 L 63.867,20.01 L 63.826,19.97 L 63.789,19.94 L 63.756,19.89 L 63.728,19.85 L 63.704,19.8 L 63.685,19.76 L 63.672,19.7 L 63.664,19.65 L 63.661,19.6 L 63.664,19.55 L 63.672,19.5 L 63.685,19.45 L 63.704,19.4 L 63.728,19.35 L 63.756,19.31 L 63.789,19.27 L 63.826,19.23 L 63.867,19.2 L 63.911,19.17 L 63.958,19.14 L 64.006,19.13 L 64.057,19.11 L 64.109,19.1 L 64.161,19.1 L 64.213,19.1 L 64.265,19.11 L 64.316,19.13 L 64.364,19.14 L 64.411,19.17 L 64.455,19.2 L 64.496,19.23 L 64.533,19.27 L 64.566,19.31 L 64.594,19.35 L 64.618,19.4 L 64.637,19.45 L 64.65,19.5 L 64.658,19.55 L 64.661,19.6 L 64.658,19.65 L 64.65,19.7 L 64.637,19.76 L 64.618,19.8 L 64.594,19.85 L 64.566,19.89 L 64.533,19.94 L 64.496,19.97 L 64.455,20.01 L 64.411,20.03 L 64.364,20.06 L 64.316,20.08 L 64.265,20.09 L 64.213,20.1 L 64.161,20.1 z
M 51.453,62.24 L 51.324,62.22 L 51.198,62.19 L 51.076,62.14 L 50.959,62.08 L 50.849,62.01 L 50.748,61.93 L 50.655,61.84 L 50.573,61.74 L 50.501,61.63 L 50.442,61.51 L 50.395,61.39 L 50.361,61.26 L 50.341,61.13 L 50.334,61 L 50.341,60.87 L 50.361,60.74 L 50.395,60.61 L 50.442,60.49 L 50.501,60.38 L 50.573,60.27 L 50.655,60.16 L 50.748,60.07 L 50.849,59.99 L 50.959,59.92 L 51.076,59.86 L 51.198,59.81 L 51.324,59.78 L 51.453,59.76 L 51.584,59.75 L 51.715,59.76 L 51.844,59.78 L 51.97,59.81 L 52.092,59.86 L 52.209,59.92 L 52.319,59.99 L 52.42,60.07 L 52.513,60.16 L 52.595,60.27 L 52.667,60.38 L 52.726,60.49 L 52.773,60.61 L 52.807,60.74 L 52.827,60.87 L 52.834,61 L 52.827,61.13 L 52.807,61.26 L 52.773,61.39 L 52.726,61.51 L 52.667,61.63 L 52.595,61.74 L 52.513,61.84 L 52.42,61.93 L 52.319,62.01 L 52.209,62.08 L 52.092,62.14 L 51.97,62.19 L 51.844,62.22 L 51.715,62.24 L 51.584,62.25 z
M 189.5694,146.72 L 195.5854,122.12 L 195.5854,93.72 L 192.6114,93.72 L 192.6114,85.72 L 191.2784,85.72 L 191.2784,93.72 L 188.3044,93.72 L 188.3044,122.12 L 179.3244,146.72 L 179.3244,169.43 L 189.5694,169.43 z
M 191.8934,105.81 L 191.8414,105.8 L 191.7904,105.79 L 191.7424,105.77 L 191.6954,105.75 L 191.6514,105.72 L 191.6104,105.69 L 191.5734,105.65 L 191.5404,105.61 L 191.5124,105.57 L 191.4884,105.52 L 191.4694,105.47 L 191.4564,105.42 L 191.4484,105.37 L 191.4454,105.32 L 191.4484,105.26 L 191.4564,105.21 L 191.4694,105.16 L 191.4884,105.11 L 191.5124,105.07 L 191.5404,105.02 L 191.5734,104.98 L 191.6104,104.94 L 191.6514,104.91 L 191.6954,104.88 L 191.7424,104.86 L 191.7904,104.84 L 191.8414,104.83 L 191.8934,104.82 L 191.9454,104.82 L 191.9974,104.82 L 192.0494,104.83 L 192.1004,104.84 L 192.1484,104.86 L 192.1954,104.88 L 192.2394,104.91 L 192.2804,104.94 L 192.3174,104.98 L 192.3504,105.02 L 192.3784,105.07 L 192.4024,105.11 L 192.4214,105.16 L 192.4344,105.21 L 192.4424,105.26 L 192.4454,105.32 L 192.4424,105.37 L 192.4344,105.42 L 192.4214,105.47 L 192.4024,105.52 L 192.3784,105.57 L 192.3504,105.61 L 192.3174,105.65 L 192.2804,105.69 L 192.2394,105.72 L 192.1954,105.75 L 192.1484,105.77 L 192.1004,105.79 L 192.0494,105.8 L 191.9974,105.81 L 191.9454,105.82 z
M 184.3154,147.96 L 184.1864,147.94 L 184.0604,147.9 L 183.9384,147.86 L 183.8214,147.8 L 183.7114,147.73 L 183.6104,147.64 L 183.5174,147.55 L 183.4354,147.45 L 183.3634,147.34 L 183.3044,147.22 L 183.2574,147.1 L 183.2234,146.98 L 183.2034,146.85 L 183.1964,146.72 L 183.2034,146.58 L 183.2234,146.46 L 183.2574,146.33 L 183.3044,146.21 L 183.3634,146.09 L 183.4354,145.98 L 183.5174,145.88 L 183.6104,145.79 L 183.7114,145.7 L 183.8214,145.63 L 183.9384,145.57 L 184.0604,145.53 L 184.1864,145.49 L 184.3154,145.47 L 184.4464,145.47 L 184.5774,145.47 L 184.7064,145.49 L 184.8324,145.53 L 184.9544,145.57 L 185.0714,145.63 L 185.1814,145.7 L 185.2824,145.79 L 185.3754,145.88 L 185.4574,145.98 L 185.5294,146.09 L 185.5884,146.21 L 185.6354,146.33 L 185.6694,146.46 L 185.6894,146.58 L 185.6964,146.72 L 185.6894,146.85 L 185.6694,146.98 L 185.6354,147.1 L 185.5884,147.22 L 185.5294,147.34 L 185.4574,147.45 L 185.3754,147.55 L 185.2824,147.64 L 185.1814,147.73 L 185.0714,147.8 L 184.9544,147.86 L 184.8324,147.9 L 184.7064,147.94 L 184.5774,147.96 L 184.4464,147.97 z
M 246.5272,61 L 255.6622,36.4 L 255.6622,8 L 252.6892,8 L 252.6892,0 L 251.3552,0 L 251.3552,8 L 248.3822,8 L 248.3822,36.4 L 236.2812,61 L 236.2812,83.714 L 246.5272,83.714 z
M 251.9702,20.1 L 251.9182,20.09 L 251.8672,20.08 L 251.8192,20.06 L 251.7722,20.03 L 251.7282,20 L 251.6872,19.97 L 251.6502,19.93 L 251.6172,19.89 L 251.5892,19.85 L 251.5652,19.8 L 251.5462,19.75 L 251.5332,19.7 L 251.5252,19.65 L 251.5222,19.6 L 251.5252,19.55 L 251.5332,19.5 L 251.5462,19.44 L 251.5652,19.4 L 251.5892,19.35 L 251.6172,19.31 L 251.6502,19.26 L 251.6872,19.23 L 251.7282,19.19 L 251.7722,19.17 L 251.8192,19.14 L 251.8672,19.12 L 251.9182,19.11 L 251.9702,19.1 L 252.0222,19.1 L 252.0742,19.1 L 252.1262,19.11 L 252.1772,19.12 L 252.2252,19.14 L 252.2722,19.17 L 252.3162,19.19 L 252.3572,19.23 L 252.3942,19.26 L 252.4272,19.31 L 252.4552,19.35 L 252.4792,19.4 L 252.4982,19.44 L 252.5112,19.5 L 252.5192,19.55 L 252.5222,19.6 L 252.5192,19.65 L 252.5112,19.7 L 252.4982,19.75 L 252.4792,19.8 L 252.4552,19.85 L 252.4272,19.89 L 252.3942,19.93 L 252.3572,19.97 L 252.3162,20 L 252.2722,20.03 L 252.2252,20.06 L 252.1772,20.08 L 252.1262,20.09 L 252.0742,20.1 L 252.0222,20.1 z
M 241.2732,62.243 L 241.1442,62.222 L 241.0182,62.188 L 240.8962,62.141 L 240.7792,62.082 L 240.6692,62.011 L 240.5682,61.928 L 240.4752,61.836 L 240.3932,61.734 L 240.3212,61.625 L 240.2622,61.508 L 240.2152,61.386 L 240.1812,61.259 L 240.1612,61.13 L 240.1542,61 L 240.1612,60.869 L 240.1812,60.74 L 240.2152,60.613 L 240.2622,60.491 L 240.3212,60.375 L 240.3932,60.265 L 240.4752,60.163 L 240.5682,60.071 L 240.6692,59.988 L 240.7792,59.917 L 240.8962,59.858 L 241.0182,59.811 L 241.1442,59.777 L 241.2732,59.756 L 241.4042,59.75 L 241.5352,59.756 L 241.6642,59.777 L 241.7902,59.811 L 241.9122,59.858 L 242.0292,59.917 L 242.1392,59.988 L 242.2402,60.071 L 242.3332,60.163 L 242.4152,60.265 L 242.4872,60.375 L 242.5462,60.491 L 242.5932,60.613 L 242.6272,60.74 L 242.6472,60.869 L 242.6542,61 L 242.6472,61.13 L 242.6272,61.259 L 242.5932,61.386 L 242.5462,61.508 L 242.4872,61.625 L 242.4152,61.734 L 242.3332,61.836 L 242.2402,61.928 L 242.1392,62.011 L 242.0292,62.082 L 241.9122,62.141 L 241.7902,62.188 L 241.6642,62.222 L 241.5352,62.243 L 241.4042,62.25 z
M 10.245,146.72 L 12.933,122.12 L 12.933,93.72 L 8.4,93.72 L 8.4,85.72 L 7.067,85.72 L 7.067,93.72 L 2.533,93.72 L 2.533,122.12 L 0,146.72 L 0,169.434 L 10.245,169.434 z
M 7.681,105.817 L 7.629,105.809 L 7.578,105.795 L 7.53,105.777 L 7.483,105.753 L 7.439,105.724 L 7.398,105.691 L 7.361,105.654 L 7.328,105.614 L 7.3,105.57 L 7.276,105.523 L 7.257,105.474 L 7.244,105.424 L 7.236,105.372 L 7.233,105.32 L 7.236,105.268 L 7.244,105.216 L 7.257,105.165 L 7.276,105.116 L 7.3,105.07 L 7.328,105.026 L 7.361,104.985 L 7.398,104.948 L 7.439,104.915 L 7.483,104.887 L 7.53,104.863 L 7.578,104.844 L 7.629,104.831 L 7.681,104.823 L 7.733,104.82 L 7.785,104.823 L 7.837,104.831 L 7.888,104.844 L 7.936,104.863 L 7.983,104.887 L 8.027,104.915 L 8.068,104.948 L 8.105,104.985 L 8.138,105.026 L 8.166,105.07 L 8.19,105.116 L 8.209,105.165 L 8.222,105.216 L 8.23,105.268 L 8.233,105.32 L 8.23,105.372 L 8.222,105.424 L 8.209,105.474 L 8.19,105.523 L 8.166,105.57 L 8.138,105.614 L 8.105,105.654 L 8.068,105.691 L 8.027,105.724 L 7.983,105.753 L 7.936,105.777 L 7.888,105.795 L 7.837,105.809 L 7.785,105.817 L 7.733,105.82 z
M 4.992,147.963 L 4.863,147.942 L 4.737,147.909 L 4.615,147.862 L 4.498,147.802 L 4.388,147.731 L 4.287,147.649 L 4.194,147.556 L 4.112,147.455 L 4.04,147.345 L 3.981,147.228 L 3.934,147.106 L 3.9,146.98 L 3.88,146.85 L 3.873,146.72 L 3.88,146.589 L 3.9,146.46 L 3.934,146.334 L 3.981,146.211 L 4.04,146.095 L 4.112,145.985 L 4.194,145.883 L 4.287,145.791 L 4.388,145.709 L 4.498,145.637 L 4.615,145.578 L 4.737,145.531 L 4.863,145.497 L 4.992,145.477 L 5.123,145.47 L 5.254,145.477 L 5.383,145.497 L 5.509,145.531 L 5.631,145.578 L 5.748,145.637 L 5.858,145.709 L 5.959,145.791 L 6.052,145.883 L 6.134,145.985 L 6.206,146.095 L 6.265,146.211 L 6.312,146.334 L 6.346,146.46 L 6.366,146.589 L 6.373,146.72 L 6.366,146.85 L 6.346,146.98 L 6.312,147.106 L 6.265,147.228 L 6.206,147.345 L 6.134,147.455 L 6.052,147.556 L 5.959,147.649 L 5.858,147.731 L 5.748,147.802 L 5.631,147.862 L 5.509,147.909 L 5.383,147.942 L 5.254,147.963 L 5.123,147.97 z
M 183.1691,61 L 175.216,36.4 L 175.216,8 L 170.9737,8 L 170.9737,0 L 169.6403,0 L 169.6403,8 L 165.398,8 L 165.398,36.4 L 172.9237,61 L 172.9237,83.714 L 183.1691,83.714 z
M 170.2547,20.097 L 170.203,20.089 L 170.1525,20.076 L 170.1036,20.057 L 170.057,20.033 L 170.0131,20.005 L 169.9724,19.972 L 169.9354,19.935 L 169.9025,19.894 L 169.874,19.85 L 169.8502,19.803 L 169.8315,19.755 L 169.8179,19.704 L 169.8097,19.652 L 169.807,19.6 L 169.8097,19.548 L 169.8179,19.496 L 169.8315,19.446 L 169.8502,19.397 L 169.874,19.35 L 169.9025,19.306 L 169.9354,19.266 L 169.9724,19.229 L 170.0131,19.196 L 170.057,19.167 L 170.1036,19.143 L 170.1525,19.125 L 170.203,19.111 L 170.2547,19.103 L 170.307,19.1 L 170.3593,19.103 L 170.411,19.111 L 170.4615,19.125 L 170.5104,19.143 L 170.557,19.167 L 170.6009,19.196 L 170.6416,19.229 L 170.6786,19.266 L 170.7115,19.306 L 170.74,19.35 L 170.7638,19.397 L 170.7825,19.446 L 170.7961,19.496 L 170.8043,19.548 L 170.807,19.6 L 170.8043,19.652 L 170.7961,19.704 L 170.7825,19.755 L 170.7638,19.803 L 170.74,19.85 L 170.7115,19.894 L 170.6786,19.935 L 170.6416,19.972 L 170.6009,20.005 L 170.557,20.033 L 170.5104,20.057 L 170.4615,20.076 L 170.411,20.089 L 170.3593,20.097 L 170.307,20.1 z
M 177.9157,62.243 L 177.7865,62.223 L 177.6601,62.189 L 177.538,62.142 L 177.4214,62.083 L 177.3117,62.011 L 177.21,61.929 L 177.1175,61.837 L 177.0351,61.735 L 176.9639,61.625 L 176.9045,61.509 L 176.8576,61.386 L 176.8237,61.26 L 176.8032,61.131 L 176.7964,61 L 176.8032,60.869 L 176.8237,60.74 L 176.8576,60.614 L 176.9045,60.492 L 176.9639,60.375 L 177.0351,60.265 L 177.1175,60.164 L 177.21,60.071 L 177.3117,59.989 L 177.4214,59.918 L 177.538,59.858 L 177.6601,59.811 L 177.7865,59.777 L 177.9157,59.757 L 178.0464,59.75 L 178.1771,59.757 L 178.3063,59.777 L 178.4327,59.811 L 178.5548,59.858 L 178.6714,59.918 L 178.7811,59.989 L 178.8828,60.071 L 178.9753,60.164 L 179.0577,60.265 L 179.1289,60.375 L 179.1883,60.492 L 179.2352,60.614 L 179.2691,60.74 L 179.2896,60.869 L 179.2964,61 L 179.2896,61.131 L 179.2691,61.26 L 179.2352,61.386 L 179.1883,61.509 L 179.1289,61.625 L 179.0577,61.735 L 178.9753,61.837 L 178.8828,61.929 L 178.7811,62.011 L 178.6714,62.083 L 178.5548,62.142 L 178.4327,62.189 L 178.3063,62.223 L 178.1771,62.243 L 178.0464,62.25 z
M 163.398,61 L 156.0269,36.4 L 156.0269,8 L 151.7846,8 L 151.7846,0 L 150.4513,0 L 150.4513,8 L 146.209,8 L 146.209,36.4 L 153.1525,61 L 153.1525,83.715 L 163.398,83.715 z
M 151.0657,20.098 L 151.014,20.089 L 150.9635,20.076 L 150.9146,20.057 L 150.868,20.033 L 150.8241,20.005 L 150.7834,19.972 L 150.7464,19.935 L 150.7135,19.894 L 150.685,19.85 L 150.6612,19.804 L 150.6425,19.755 L 150.6289,19.704 L 150.6207,19.653 L 150.618,19.6 L 150.6207,19.548 L 150.6289,19.496 L 150.6425,19.446 L 150.6612,19.397 L 150.685,19.35 L 150.7135,19.307 L 150.7464,19.266 L 150.7834,19.229 L 150.8241,19.196 L 150.868,19.167 L 150.9146,19.144 L 150.9635,19.125 L 151.014,19.111 L 151.0657,19.103 L 151.118,19.1 L 151.1703,19.103 L 151.222,19.111 L 151.2725,19.125 L 151.3214,19.144 L 151.368,19.167 L 151.4119,19.196 L 151.4526,19.229 L 151.4896,19.266 L 151.5225,19.307 L 151.551,19.35 L 151.5748,19.397 L 151.5935,19.446 L 151.6071,19.496 L 151.6153,19.548 L 151.618,19.6 L 151.6153,19.653 L 151.6071,19.704 L 151.5935,19.755 L 151.5748,19.804 L 151.551,19.85 L 151.5225,19.894 L 151.4896,19.935 L 151.4526,19.972 L 151.4119,20.005 L 151.368,20.033 L 151.3214,20.057 L 151.2725,20.076 L 151.222,20.089 L 151.1703,20.098 L 151.118,20.1 z
M 158.1446,62.244 L 158.0154,62.223 L 157.889,62.189 L 157.7669,62.142 L 157.6503,62.083 L 157.5406,62.012 L 157.4389,61.929 L 157.3464,61.837 L 157.264,61.735 L 157.1928,61.625 L 157.1334,61.509 L 157.0865,61.387 L 157.0526,61.26 L 157.0321,61.131 L 157.0253,61 L 157.0321,60.87 L 157.0526,60.741 L 157.0865,60.614 L 157.1334,60.492 L 157.1928,60.375 L 157.264,60.266 L 157.3464,60.164 L 157.4389,60.071 L 157.5406,59.989 L 157.6503,59.918 L 157.7669,59.858 L 157.889,59.812 L 158.0154,59.778 L 158.1446,59.757 L 158.2753,59.75 L 158.406,59.757 L 158.5352,59.778 L 158.6616,59.812 L 158.7837,59.858 L 158.9003,59.918 L 159.01,59.989 L 159.1117,60.071 L 159.2042,60.164 L 159.2866,60.266 L 159.3578,60.375 L 159.4172,60.492 L 159.4641,60.614 L 159.498,60.741 L 159.5185,60.87 L 159.5253,61 L 159.5185,61.131 L 159.498,61.26 L 159.4641,61.387 L 159.4172,61.509 L 159.3578,61.625 L 159.2866,61.735 L 159.2042,61.837 L 159.1117,61.929 L 159.01,62.012 L 158.9003,62.083 L 158.7837,62.142 L 158.6616,62.189 L 158.5352,62.223 L 158.406,62.244 L 158.2753,62.25 z
M 46.6674,146.72 L 25.333,122.12 L 25.333,93.72 L 20.7997,93.72 L 20.7997,85.72 L 19.4663,85.72 L 19.4663,93.72 L 14.933,93.72 L 14.933,122.12 L 36.4219,146.72 L 36.4219,169.434 L 46.6674,169.434 z
M 20.0807,105.817 L 20.029,105.809 L 19.9785,105.795 L 19.9296,105.776 L 19.883,105.753 L 19.8391,105.724 L 19.7984,105.691 L 19.7614,105.654 L 19.7285,105.614 L 19.7,105.57 L 19.6762,105.523 L 19.6575,105.474 L 19.6439,105.424 L 19.6357,105.372 L 19.633,105.32 L 19.6357,105.267 L 19.6439,105.216 L 19.6575,105.165 L 19.6762,105.116 L 19.7,105.07 L 19.7285,105.026 L 19.7614,104.985 L 19.7984,104.948 L 19.8391,104.915 L 19.883,104.887 L 19.9296,104.863 L 19.9785,104.844 L 20.029,104.831 L 20.0807,104.822 L 20.133,104.82 L 20.1853,104.822 L 20.237,104.831 L 20.2875,104.844 L 20.3364,104.863 L 20.383,104.887 L 20.4269,104.915 L 20.4676,104.948 L 20.5046,104.985 L 20.5375,105.026 L 20.566,105.07 L 20.5898,105.116 L 20.6085,105.165 L 20.6221,105.216 L 20.6303,105.267 L 20.633,105.32 L 20.6303,105.372 L 20.6221,105.424 L 20.6085,105.474 L 20.5898,105.523 L 20.566,105.57 L 20.5375,105.614 L 20.5046,105.654 L 20.4676,105.691 L 20.4269,105.724 L 20.383,105.753 L 20.3364,105.776 L 20.2875,105.795 L 20.237,105.809 L 20.1853,105.817 L 20.133,105.82 z
M 41.4139,147.963 L 41.2847,147.942 L 41.1583,147.909 L 41.0362,147.862 L 40.9196,147.802 L 40.8099,147.731 L 40.7082,147.649 L 40.6157,147.556 L 40.5333,147.454 L 40.4621,147.345 L 40.4027,147.228 L 40.3558,147.106 L 40.3219,146.98 L 40.3014,146.85 L 40.2946,146.72 L 40.3014,146.589 L 40.3219,146.46 L 40.3558,146.333 L 40.4027,146.211 L 40.4621,146.095 L 40.5333,145.985 L 40.6157,145.883 L 40.7082,145.791 L 40.8099,145.708 L 40.9196,145.637 L 41.0362,145.578 L 41.1583,145.531 L 41.2847,145.497 L 41.4139,145.477 L 41.5446,145.47 L 41.6753,145.477 L 41.8045,145.497 L 41.9309,145.531 L 42.053,145.578 L 42.1696,145.637 L 42.2793,145.708 L 42.381,145.791 L 42.4735,145.883 L 42.5559,145.985 L 42.6271,146.095 L 42.6865,146.211 L 42.7334,146.333 L 42.7673,146.46 L 42.7878,146.589 L 42.7946,146.72 L 42.7878,146.85 L 42.7673,146.98 L 42.7334,147.106 L 42.6865,147.228 L 42.6271,147.345 L 42.5559,147.454 L 42.4735,147.556 L 42.381,147.649 L 42.2793,147.731 L 42.1696,147.802 L 42.053,147.862 L 41.9309,147.909 L 41.8045,147.942 L 41.6753,147.963 L 41.5446,147.97 z
M 234.2812,61 L 195.5691,36.4 L 195.5691,8 L 191.0358,8 L 191.0358,0 L 189.7024,0 L 189.7024,8 L 185.1691,8 L 185.1691,36.4 L 224.0358,61 L 224.0358,83.714 L 234.2812,83.714 z
M 190.3168,20.097 L 190.2651,20.089 L 190.2146,20.076 L 190.1657,20.057 L 190.1191,20.033 L 190.0752,20.005 L 190.0345,19.972 L 189.9975,19.935 L 189.9646,19.894 L 189.9361,19.85 L 189.9123,19.803 L 189.8936,19.755 L 189.88,19.704 L 189.8718,19.652 L 189.8691,19.6 L 189.8718,19.548 L 189.88,19.496 L 189.8936,19.445 L 189.9123,19.397 L 189.9361,19.35 L 189.9646,19.306 L 189.9975,19.265 L 190.0345,19.228 L 190.0752,19.195 L 190.1191,19.167 L 190.1657,19.143 L 190.2146,19.124 L 190.2651,19.111 L 190.3168,19.103 L 190.3691,19.1 L 190.4214,19.103 L 190.4731,19.111 L 190.5236,19.124 L 190.5725,19.143 L 190.6191,19.167 L 190.663,19.195 L 190.7037,19.228 L 190.7407,19.265 L 190.7736,19.306 L 190.8021,19.35 L 190.8259,19.397 L 190.8446,19.445 L 190.8582,19.496 L 190.8664,19.548 L 190.8691,19.6 L 190.8664,19.652 L 190.8582,19.704 L 190.8446,19.755 L 190.8259,19.803 L 190.8021,19.85 L 190.7736,19.894 L 190.7407,19.935 L 190.7037,19.972 L 190.663,20.005 L 190.6191,20.033 L 190.5725,20.057 L 190.5236,20.076 L 190.4731,20.089 L 190.4214,20.097 L 190.3691,20.1 z
M 229.0278,62.243 L 228.8986,62.223 L 228.7722,62.189 L 228.6501,62.142 L 228.5335,62.083 L 228.4238,62.011 L 228.3221,61.929 L 228.2296,61.836 L 228.1472,61.735 L 228.076,61.625 L 228.0166,61.508 L 227.9697,61.386 L 227.9358,61.26 L 227.9153,61.131 L 227.9085,61 L 227.9153,60.869 L 227.9358,60.74 L 227.9697,60.614 L 228.0166,60.492 L 228.076,60.375 L 228.1472,60.265 L 228.2296,60.164 L 228.3221,60.071 L 228.4238,59.989 L 228.5335,59.917 L 228.6501,59.858 L 228.7722,59.811 L 228.8986,59.777 L 229.0278,59.757 L 229.1585,59.75 L 229.2892,59.757 L 229.4184,59.777 L 229.5448,59.811 L 229.6669,59.858 L 229.7835,59.917 L 229.8932,59.989 L 229.9949,60.071 L 230.0874,60.164 L 230.1698,60.265 L 230.241,60.375 L 230.3004,60.492 L 230.3473,60.614 L 230.3812,60.74 L 230.4017,60.869 L 230.4085,61 L 230.4017,61.131 L 230.3812,61.26 L 230.3473,61.386 L 230.3004,61.508 L 230.241,61.625 L 230.1698,61.735 L 230.0874,61.836 L 229.9949,61.929 L 229.8932,62.011 L 229.7835,62.083 L 229.6669,62.142 L 229.5448,62.189 L 229.4184,62.223 L 229.2892,62.243 L 229.1585,62.25 z
M 16,255.434 L 18,255.434 L 18,263.434 L 44.1111,263.434 L 44.1111,255.434 L 46.1111,255.434 L 46.1111,263.434 L 69.0988,263.434 L 69.0988,255.434 L 71.0988,255.434 L 71.0988,263.434 L 79.25,263.434 L 79.25,255.434 L 81.25,255.434 L 81.25,263.434 L 100.333,263.434 L 100.333,255.434 L 102.333,255.434 L 102.333,263.434 L 119.074,263.434 L 119.074,255.434 L 121.074,255.434 L 121.074,263.434 L 126.688,263.434 L 126.688,255.434 L 128.688,255.434 L 128.688,263.434 L 142.5,263.434 L 142.5,255.434 L 144.5,255.434 L 144.5,263.434 L 156.556,263.434 L 156.556,255.434 L 158.556,255.434 L 158.556,263.434 L 162.266,263.434 L 162.266,255.434 L 164.266,255.434 L 164.266,263.434 L 169.049,263.434 L 169.049,255.434 L 171.049,255.434 L 171.049,263.434 L 174.125,263.434 L 174.125,255.434 L 176.125,255.434 L 176.125,263.434 L 184.667,263.434 L 184.667,255.434 L 186.667,255.434 L 186.667,263.434 L 191.519,263.434 L 191.519,255.434 L 193.519,255.434 L 193.519,263.434 L 196.519,263.434 L 196.519,255.434 L 198.519,255.434 L 198.519,263.434 L 201.519,263.434 L 201.519,255.434 L 203.519,255.434 L 203.519,263.434 L 206.519,263.434 L 206.519,255.434 L 208.519,255.434 L 208.519,263.434 L 211.519,263.434 L 211.519,255.434 L 213.519,255.434 L 213.519,263.434 L 216.519,263.434 L 216.519,255.434 L 218.519,255.434 L 218.519,263.434 L 221.519,263.434 L 221.519,255.434 L 223.519,255.434 L 223.519,263.434 L 226.519,263.434 L 226.519,255.434 L 228.519,255.434 L 228.519,263.434 L 231.519,263.434 L 231.519,255.434 L 233.519,255.434 L 233.519,263.434 L 236.519,263.434 L 236.519,251.434 L 168.563,251.434 L 168.563,248.434 L 162.563,248.434 L 162.563,251.434 L 73.9556,251.434 L 73.9556,248.434 L 67.9556,248.434 L 67.9556,251.434 L 0,251.434 L 0,263.434 L 16,263.434 z
M 22,272.434 L 24,272.434 L 24,280.434 L 50.1111,280.434 L 50.1111,272.434 L 52.1111,272.434 L 52.1111,280.434 L 75.0988,280.434 L 75.0988,272.434 L 77.0988,272.434 L 77.0988,280.434 L 85.25,280.434 L 85.25,272.434 L 87.25,272.434 L 87.25,280.434 L 106.333,280.434 L 106.333,272.434 L 108.333,272.434 L 108.333,280.434 L 125.074,280.434 L 125.074,272.434 L 127.074,272.434 L 127.074,280.434 L 132.688,280.434 L 132.688,272.434 L 134.688,272.434 L 134.688,280.434 L 148.5,280.434 L 148.5,272.434 L 150.5,272.434 L 150.5,280.434 L 162.556,280.434 L 162.556,272.434 L 164.556,272.434 L 164.556,280.434 L 168.266,280.434 L 168.266,272.434 L 170.266,272.434 L 170.266,280.434 L 175.049,280.434 L 175.049,272.434 L 177.049,272.434 L 177.049,280.434 L 180.125,280.434 L 180.125,272.434 L 182.125,272.434 L 182.125,280.434 L 190.667,280.434 L 190.667,272.434 L 192.667,272.434 L 192.667,280.434 L 197.519,280.434 L 197.519,272.434 L 199.519,272.434 L 199.519,280.434 L 202.519,280.434 L 202.519,272.434 L 204.519,272.434 L 204.519,280.434 L 207.519,280.434 L 207.519,272.434 L 209.519,272.434 L 209.519,280.434 L 212.519,280.434 L 212.519,272.434 L 214.519,272.434 L 214.519,280.434 L 217.519,280.434 L 217.519,272.434 L 219.519,272.434 L 219.519,280.434 L 222.519,280.434 L 222.519,272.434 L 224.519,272.434 L 224.519,280.434 L 227.519,280.434 L 227.519,272.434 L 229.519,272.434 L 229.519,280.434 L 232.519,280.434 L 232.519,272.434 L 234.519,272.434 L 234.519,280.434 L 237.519,280.434 L 237.519,272.434 L 239.519,272.434 L 239.519,280.434 L 242.519,280.434 L 242.519,268.434 L 150.911,268.434 L 150.911,265.434 L 144.911,265.434 L 144.911,268.434 L 103.6074,268.434 L 103.6074,265.434 L 97.6074,265.434 L 97.6074,268.434 L 6,268.434 L 6,271.434 L 0,271.434 L 0,274.434 L 6,274.434 L 6,280.434 L 22,280.434 z
M 226.4039,157.72 L 230.7064,157.72 L 230.7064,160.72 L 235.0289,160.72 L 235.0289,157.72 L 245.7164,157.72 L 245.7164,114.37 L 243.6164,114.37 L 243.6164,112.27 L 245.7164,112.27 L 245.7164,88.72 L 230.7164,88.72 L 230.7164,85.72 L 226.3939,85.72 L 226.3939,88.72 L 222.0914,88.72 L 222.0914,85.72 L 219.0814,85.72 L 219.0814,88.72 L 219.0914,88.72 L 219.0914,97.345 L 222.0914,97.345 L 222.0914,105.97 L 219.0914,105.97 L 219.0914,114.595 L 222.0914,114.595 L 222.0914,123.22 L 219.0914,123.22 L 219.0914,131.845 L 222.0914,131.845 L 222.0914,140.47 L 219.0914,140.47 L 219.0914,149.095 L 222.0914,149.095 L 222.0914,157.72 L 222.0814,157.72 L 222.0814,160.72 L 226.4039,160.72 z
M 236.7843,107.47 L 236.7843,104.47 L 239.7843,104.47 L 239.7843,107.47 z
M 236.7843,141.97 L 236.7843,138.97 L 239.7843,138.97 L 239.7843,141.97 z
M 7.3225,243.434 L 11.625,243.434 L 11.625,246.434 L 15.9475,246.434 L 15.9475,243.434 L 26.635,243.434 L 26.635,200.084 L 24.535,200.084 L 24.535,197.984 L 26.635,197.984 L 26.635,180.434 L 13.7243,180.434 L 13.7243,177.434 L 26.635,177.434 L 26.635,174.434 L 11.635,174.434 L 11.635,171.434 L 7.3125,171.434 L 7.3125,174.434 L 3.01,174.434 L 3.01,171.434 L 0,171.434 L 0,174.434 L 0.01,174.434 L 0.01,183.059 L 3.01,183.059 L 3.01,191.684 L 0.01,191.684 L 0.01,200.309 L 3.01,200.309 L 3.01,208.934 L 0.01,208.934 L 0.01,217.559 L 3.01,217.559 L 3.01,226.184 L 0.01,226.184 L 0.01,234.809 L 3.01,234.809 L 3.01,243.434 L 3,243.434 L 3,246.434 L 7.3225,246.434 z
M 13.7243,240.434 L 13.7243,237.434 L 16.7243,237.434 L 16.7243,240.434 z
" stroke="black" fill="none" stroke-width="0.35"/>
</svg>
